<svg width="92.819" height="14.169" viewBox="0 0 92.819 14.169" xmlns="http://www.w3.org/2000/svg"><g id="svgGroup" stroke-linecap="round" fill-rule="evenodd" font-size="9pt" stroke="#ffffff" stroke-width="0.25mm" fill="#ffffff" style="stroke:#ffffff;stroke-width:0.25mm;fill:#ffffff"><path d="M 65.614 13.976 L 54.41 13.976 L 54.41 0.217 L 65.229 0.217 L 65.229 2.434 L 57.277 2.434 L 57.277 5.904 L 64.627 5.904 L 64.627 8.121 L 57.277 8.121 L 57.277 11.759 L 65.614 11.759 L 65.614 13.976 Z M 77.783 9.277 L 80.289 10.241 A 7.146 7.146 0 0 1 79.438 11.781 A 5.44 5.44 0 0 1 77.904 13.205 A 6.388 6.388 0 0 1 75.64 14.044 A 8.618 8.618 0 0 1 74.145 14.169 Q 71.389 14.169 69.675 12.878 A 5.566 5.566 0 0 1 69.012 12.289 A 6.174 6.174 0 0 1 67.515 9.574 Q 67.205 8.433 67.205 7.036 A 10.574 10.574 0 0 1 67.391 4.988 Q 67.775 3.045 68.952 1.82 A 5.608 5.608 0 0 1 71.499 0.324 Q 72.402 0.064 73.487 0.013 A 11.466 11.466 0 0 1 74.024 0 A 9.934 9.934 0 0 1 75.655 0.126 Q 76.54 0.274 77.263 0.594 A 5.228 5.228 0 0 1 77.976 0.976 A 5.008 5.008 0 0 1 79.931 3.376 A 6.435 6.435 0 0 1 80.096 3.832 L 77.566 4.53 A 2.928 2.928 0 0 0 76.301 2.88 A 3.842 3.842 0 0 0 74.634 2.297 A 4.889 4.889 0 0 0 74.072 2.265 A 4.994 4.994 0 0 0 72.893 2.396 A 3.247 3.247 0 0 0 71.108 3.482 A 3.912 3.912 0 0 0 70.417 4.761 Q 70.226 5.332 70.149 6.027 A 9.155 9.155 0 0 0 70.096 7.036 Q 70.096 8.631 70.574 9.72 A 3.853 3.853 0 0 0 71.145 10.651 A 3.4 3.4 0 0 0 73.171 11.815 A 5.097 5.097 0 0 0 74.145 11.904 Q 76.259 11.904 77.34 10.17 A 5.502 5.502 0 0 0 77.783 9.277 Z M 26 13.976 L 22.771 13.976 L 19.566 8.747 L 16.193 8.747 L 16.193 13.976 L 13.325 13.976 L 13.325 0.217 L 20.193 0.217 A 9.155 9.155 0 0 1 21.652 0.326 Q 22.41 0.449 23.022 0.709 A 4.191 4.191 0 0 1 23.988 1.277 A 3.444 3.444 0 0 1 25.27 3.549 A 5.097 5.097 0 0 1 25.325 4.314 A 4.272 4.272 0 0 1 25.107 5.699 A 3.754 3.754 0 0 1 24.506 6.808 A 3.811 3.811 0 0 1 22.546 8.124 A 4.816 4.816 0 0 1 22.289 8.193 L 26 13.976 Z M 92.819 2.434 L 88.361 2.434 L 88.361 13.976 L 85.494 13.976 L 85.494 2.434 L 81.036 2.434 L 81.036 0.217 L 92.819 0.217 L 92.819 2.434 Z M 42.265 10.241 L 45.108 9.832 A 4.668 4.668 0 0 0 45.244 10.438 Q 45.334 10.739 45.46 10.976 A 1.903 1.903 0 0 0 45.759 11.398 A 1.589 1.589 0 0 0 46.615 11.859 A 2.343 2.343 0 0 0 47.084 11.904 A 2.119 2.119 0 0 0 47.608 11.843 A 1.421 1.421 0 0 0 48.398 11.338 A 1.84 1.84 0 0 0 48.694 10.768 Q 48.781 10.505 48.817 10.185 A 4.424 4.424 0 0 0 48.843 9.687 L 48.843 2.482 L 46.096 2.482 L 46.096 0.217 L 51.711 0.217 L 51.711 9.615 A 6.031 6.031 0 0 1 51.566 10.978 Q 51.317 12.052 50.64 12.799 A 3.825 3.825 0 0 1 50.482 12.964 A 4.042 4.042 0 0 1 48.626 13.985 Q 48.005 14.146 47.272 14.166 A 7.73 7.73 0 0 1 47.06 14.169 Q 44.916 14.169 43.771 13.241 A 3.58 3.58 0 0 1 42.87 12.12 Q 42.606 11.622 42.432 10.991 A 7.986 7.986 0 0 1 42.265 10.241 Z M 6.289 9.133 L 2.867 9.133 L 2.867 13.976 L 0 13.976 L 0 0.217 L 6.169 0.217 Q 8.651 0.217 9.976 1.362 A 3.734 3.734 0 0 1 11.218 3.6 A 5.518 5.518 0 0 1 11.301 4.579 A 4.991 4.991 0 0 1 11.092 6.046 A 4.39 4.39 0 0 1 10.699 6.952 A 4.022 4.022 0 0 1 8.964 8.567 A 5.222 5.222 0 0 1 7.517 9.032 A 7.146 7.146 0 0 1 6.289 9.133 Z M 40.925 9.022 A 9.115 9.115 0 0 0 41.133 7.036 A 11.635 11.635 0 0 0 41.132 7 Q 41.129 5.843 40.894 4.862 A 6.227 6.227 0 0 0 39.289 1.88 A 5.862 5.862 0 0 0 39.057 1.656 Q 37.908 0.607 36.252 0.222 A 9.212 9.212 0 0 0 34.169 0 A 11.413 11.413 0 0 0 34.095 0.001 Q 32.96 0.008 32 0.241 A 6.009 6.009 0 0 0 29.06 1.868 Q 27.229 3.735 27.229 7.036 A 11.896 11.896 0 0 0 27.23 7.192 Q 27.272 10.406 29.06 12.265 A 5.988 5.988 0 0 0 32.033 13.934 A 8.932 8.932 0 0 0 34.145 14.169 Q 36.265 14.169 37.843 13.301 A 5.927 5.927 0 0 0 40.277 10.808 A 7.163 7.163 0 0 0 40.925 9.022 Z M 38.193 7.036 A 7.485 7.485 0 0 0 38.068 5.625 Q 37.911 4.811 37.559 4.171 A 3.992 3.992 0 0 0 37.133 3.542 A 3.461 3.461 0 0 0 34.853 2.31 A 5.033 5.033 0 0 0 34.169 2.265 Q 32.241 2.265 31.181 3.53 A 4.239 4.239 0 0 0 30.371 5.088 Q 30.12 5.947 30.12 7.036 A 7.641 7.641 0 0 0 30.247 8.472 Q 30.405 9.298 30.761 9.949 A 4.063 4.063 0 0 0 31.205 10.603 Q 32.289 11.904 34.145 11.904 Q 36.072 11.904 37.133 10.639 A 4.156 4.156 0 0 0 37.902 9.19 Q 38.093 8.579 38.158 7.843 A 9.107 9.107 0 0 0 38.193 7.036 Z M 19.88 2.458 L 16.193 2.458 L 16.193 6.506 L 19.976 6.506 Q 21.181 6.506 21.807 5.964 Q 22.434 5.422 22.434 4.434 A 2.151 2.151 0 0 0 22.264 3.547 Q 21.775 2.458 19.88 2.458 Z M 5.855 2.458 L 2.867 2.458 L 2.867 6.916 L 5.928 6.916 A 3.802 3.802 0 0 0 6.645 6.852 Q 7.063 6.772 7.389 6.59 A 1.988 1.988 0 0 0 7.759 6.326 A 1.906 1.906 0 0 0 8.326 5.357 Q 8.41 5.025 8.41 4.627 Q 8.41 2.458 5.855 2.458 Z" vector-effect="non-scaling-stroke"/></g></svg>